# xmcd
#
# Track frame offsets:
#	180
#	11601
#	24786
#	41756
#	55577
#	69722
#	83510
#	97948
#	113488
#	127658
#	141084
#	153361
#	166113
#	177826
#	191479
#	204711
#	217239
#	230349
#	244674
#	256904
#	268519
#	282462
#	297306
#
# Disc length: 4138 seconds
#
# Revision: 0
# Processed by: cddbd v1.5.2PL0 Copyright (c) Steve Scherf et al.
# Submitted via: audiograbber 1.83.01
#
DISCID=36102817
DTITLE=Various Artist - Blues goes on CD 5
DYEAR=1900
DGENRE=Blues
TTITLE0=Sonny Terry - Harmonica And Washboard Breakdown
TTITLE1=Arthur Big Boy Crudup - Crudup´s After Hours
TTITLE2=John Lee Hooker - Goin´mad Blues
TTITLE3=Alice Moore - Money Tree Man
TTITLE4=Bessie Smith - Black Mountain Blues
TTITLE5=Mississippi John Hurt - Avalon Blues
TTITLE6=John Lee Hooker - Blues For Big Town
TTITLE7=Bessie Smith - Down Hearted Blues
TTITLE8=Joe Mc Coy and Memphis Minnie - Let´s Go To Town
TTITLE9=Leroy Carr - Good Woman Blues
TTITLE10=Sonny Terry - Whoopin´ The Blues
TTITLE11=John Lee Hooker - Everybody´s Blues
TTITLE12=B. B. King - Take A Swing With Me
TTITLE13=Willie Newbern - Roll And Tumble Blues Hambone
TTITLE14=Big Joe Williams - Brother James
TTITLE15=Brownie Mc Ghee - Barbecue Any Old Time
TTITLE16=Big Joe Turner - Cherry Red
TTITLE17=Bessie Smith - Cake Walking Babies (From Home)
TTITLE18=Blind Boy Fuller - I Want Some Of Your Pie
TTITLE19=Bukka White - Aberdeen Mississippi Blues
TTITLE20=Arthur Big Boy Crudup - Dirt Road Blues
TTITLE21=Lonnie Johnson - Four Hands Are Better Than Two
TTITLE22=John Lee Hooker - Hoogie Boogie
EXTD=
EXTT0=
EXTT1=
EXTT2=
EXTT3=
EXTT4=
EXTT5=
EXTT6=
EXTT7=
EXTT8=
EXTT9=
EXTT10=
EXTT11=
EXTT12=
EXTT13=
EXTT14=
EXTT15=
EXTT16=
EXTT17=
EXTT18=
EXTT19=
EXTT20=
EXTT21=
EXTT22=
PLAYORDER=
